<?xml version="1.0" standalone="no"?><!DOCTYPE svg PUBLIC "-//W3C//DTD SVG 1.1//EN" "http://www.w3.org/Graphics/SVG/1.1/DTD/svg11.dtd"><svg t="1726806197238" class="icon" viewBox="0 0 1024 1024" version="1.1" xmlns="http://www.w3.org/2000/svg" p-id="22664" width="300" height="300" xmlns:xlink="http://www.w3.org/1999/xlink"><path d="M786 338l-146 146 0 412q0 23-16.5 39.5t-39.5 16.5-39.5-16.5-16.5-39.5l0-192-32 0 0 192q0 23-16.5 39.5t-39.5 16.5-39.5-16.5-16.5-39.5l0-412-146-146q-14-14-14-34t14-34 34-14 34 14l114 114 184 0 114-114q14-14 34-14t34 14 14 34-14 34zm-162-82q0 46.5-32.75 79.25t-79.25 32.75-79.25-32.75-32.75-79.25 32.75-79.25 79.25-32.75 79.25 32.75 32.75 79.25z" p-id="22665"></path></svg>