<?xml version="1.0" standalone="no"?><!DOCTYPE svg PUBLIC "-//W3C//DTD SVG 1.1//EN" "http://www.w3.org/Graphics/SVG/1.1/DTD/svg11.dtd"><svg t="1728551425793" class="icon" viewBox="0 0 1024 1024" version="1.1" xmlns="http://www.w3.org/2000/svg" p-id="1953" xmlns:xlink="http://www.w3.org/1999/xlink" width="200" height="200"><path d="M503.133026 4.994043c15.389806 0 29.862339 4.382528 43.519518 13.045664 13.657179 8.663136 22.829911 20.689607 27.518197 36.079413 4.688285 15.389806 5.299801 29.862339 2.038385 43.519519-3.363335 13.657179-8.968894 24.868296-17.020515 33.531432-8.051621 8.051621-12.637987 15.389806-14.064856 22.014557-1.32495 6.624751-1.630708 14.370614-1.019192 23.03375 0.713435 6.013236 6.013236 13.045664 16.001322 20.995365 9.988086 8.051621 23.747185 14.982129 41.073456 20.995365 18.039707 6.013236 31.696886 12.841825 41.073457 20.485768 9.376571 7.643944 17.020514 18.855061 23.033749 33.531433 3.363335 7.338186 7.542024 17.326272 12.536068 30.066177 4.994043 12.637987 10.395763 26.397085 16.001321 41.073457 5.707478 14.676372 10.80344 29.76042 15.491726 45.048307 4.688285 15.389806 8.663136 29.046985 12.026471 41.073456 2.6499 11.313036 4.688285 22.829911 6.013236 34.550625 1.32495 11.720713 1.121112 22.524154-0.509597 32.51224s-5.503639 18.651222-11.516874 26.091327c-6.013236 7.338186-14.370614 13.045664-25.072135 17.020514-8.051621 2.6499-13.861018 2.955658-17.530111 1.019193-3.669093-2.038385-6.217074-5.197882-7.542024-9.47849-1.32495-4.382528-2.140304-9.376571-2.547981-14.982129-0.305758-5.707478-0.815354-11.211117-1.528789-16.510918-1.32495-10.701521-4.892124-21.7088-10.497682-33.021836-5.707478-11.313036-12.23031-26.702843-19.568496-46.0675-3.363335-9.376571-6.013236-15.185968-8.05162-17.53011-2.038385-2.344143-3.465254-2.6499-4.484447-1.019193-1.019192 1.630708-1.630708 4.382528-2.038385 8.051621-0.305758 3.669093-0.509596 6.82859-0.509596 9.47849 0 4.688285 0.815354 13.55526 2.547981 26.499004 1.630708 13.045664 3.872931 29.556582 6.522832 49.532754 2.6499 20.078092 2.547981 35.264059-0.509596 45.557903-2.955658 10.395763-4.484447 19.160818-4.484447 26.499004 0 7.338186 0.713435 17.020514 2.038385 29.046986l3.97485 36.079413c0.713435 6.013236 1.019192 14.88021 1.019193 26.499004 0 11.720713-0.203838 24.3587-0.509596 38.015879-0.305758 13.657179-0.713435 27.518197-1.019193 41.583053s-0.509596 25.989408-0.509596 36.079414c0 9.988086 0.305758 24.052942 1.019192 42.092648s1.32495 36.690929 2.038385 56.055586 1.32495 37.404364 2.038385 54.11912c0.713435 16.714756 1.019192 28.333551 1.019193 35.060221 0.713435 7.338186 0.203838 12.23031-1.528789 14.472533-1.630708 2.344143-3.872931 3.872931-6.522832 4.484447-2.6499 0.713435-6.013236 0.305758-9.988086-1.019192 0.713435 1.32495 1.019192 2.955658 1.019192 4.994043 0 3.974851 0.305758 7.032428 1.019193 8.968894 1.32495 8.663136-1.121112 16.20516-7.542024 22.524153-6.318993 6.318993-14.166775 8.561217-23.543346 6.522832-7.338186-1.32495-12.841825-4.178689-16.510918-8.561217-3.669093-4.382528-6.217074-9.172732-7.542025-14.472533-2.038385-6.013236-2.6499-12.332229-2.038385-19.058899l-9.988086-2.038385c-3.363335-1.32495-6.013236-7.643944-8.05162-19.058899 0-2.6499-0.305758-8.15354-1.019193-16.510918-0.713435-8.357378-1.121112-18.039707-1.528789-29.046985-0.305758-11.007279-0.815354-22.218396-1.528788-33.531433s-1.32495-20.995365-2.038385-29.046985-1.630708-19.160818-2.955658-33.531432c-1.32495-14.370614-2.6499-29.046985-3.974851-44.029115-1.32495-14.982129-2.6499-29.658501-3.974851-44.029115-1.32495-14.370614-2.038385-25.581731-2.038385-33.531432-0.713435-6.013236-1.630708-13.351421-2.955658-22.014557-1.32495-8.663136-2.6499-17.224353-3.97485-25.581731-1.32495-8.357378-2.955658-15.491726-4.994043-21.504961-2.038385-6.013236-3.669093-8.968894-4.994044-8.968894s-2.955658 2.853739-4.994043 8.561217c-2.038385 5.707478-3.974851 12.536067-6.013235 20.485768-2.038385 8.051621-3.669093 16.714756-4.994043 25.989408-1.32495 9.376571-2.038385 17.326272-2.038385 24.052943 0 8.051621-0.509596 18.651222-1.528789 32.002643-1.019192 13.351421-2.344143 27.518197-3.974851 42.602245-1.630708 14.982129-3.159497 29.556582-4.484446 43.519519-1.32495 14.064856-2.344143 25.68365-2.955659 35.060221-0.713435 9.376571-1.32495 19.568495-2.038385 30.575774s-1.32495 21.912638-2.038384 32.51224c-0.713435 10.701521-1.32495 20.485769-2.038385 29.556581-0.713435 8.968894-1.019192 15.899403-1.019193 20.485769 0 5.299801-0.815354 8.968894-2.547981 11.007278-1.630708 2.038385-3.465254 3.669093-5.503639 4.994044-2.6499 1.32495-5.299801 1.630708-8.051621 1.019192v11.007279c0 3.363335-0.305758 6.522832-1.019192 9.47849-0.713435 2.955658-1.630708 5.503639-2.955658 7.542024-3.363335 3.974851-9.172732 8.051621-17.530111 12.026471-8.357378 3.974851-16.816676 2.6499-25.581731-3.974851-3.363335-3.363335-5.707478-7.134347-7.032428-11.516874-1.32495-4.382528-2.038385-8.561217-2.038385-12.536068 0-4.688285 0.713435-9.682328 2.038385-14.982129h-4.994043c-5.299801 0-9.172732-1.121112-11.516875-3.465255-2.344143-2.344143-3.872931-5.299801-4.484447-8.968893-0.713435-3.669093-0.713435-7.643944 0-12.026471 0.713435-4.382528 1.019192-8.561217 1.019193-12.536068 0.713435-3.974851 1.32495-13.147583 2.038385-27.518196 0.713435-14.370614 1.32495-30.066178 2.038385-47.086693s1.32495-33.83719 2.038384-50.551946c0.713435-16.714756 1.019192-29.76042 1.019193-39.035072V746.048887c0-11.313036-0.203838-23.03375-0.509596-35.060221-0.305758-12.026471-0.509596-24.052942-0.509597-36.079413v-77.15287c0-10.701521 0.713435-19.670415 2.038385-27.0086 2.038385-7.338186 2.038385-15.491726 0-24.562539-2.038385-8.968894-2.955658-19.160818-2.955658-30.575774-0.713435-11.313036 0.713435-24.3587 3.974851-39.035071 3.363335-14.676372 5.299801-32.410321 6.013235-53.099928 0-9.988086-0.713435-16.20516-2.038385-18.549303-1.32495-2.344143-2.955658-2.547981-4.994043-0.509596s-4.178689 5.197882-6.522831 9.47849c-2.344143 4.382528-4.178689 7.847782-5.50364 10.497682-1.32495 3.363335-3.363335 8.561217-6.013235 15.491726-2.6499 7.032428-5.299801 14.370614-8.051621 22.014557-2.6499 7.643944-4.790205 14.88021-6.522832 21.504961-1.630708 6.72667-2.547981 11.007279-2.547981 13.045664 0 2.038385 0.203838 5.707478 0.509596 11.007278 0.305758 5.299801 0 10.701521-1.019192 16.001322s-3.159497 9.886167-6.522832 13.55526c-3.363335 3.669093-8.357378 5.503639-14.982129 5.503639-13.351421-0.713435-25.174054-6.522832-35.569817-17.53011s-14.88021-29.250824-13.55526-54.628716c0.713435-12.637987 4.178689-29.862339 10.497682-51.571139 6.318993-21.7088 13.55526-43.927195 21.504961-66.553269 8.051621-22.727992 16.001322-43.417599 24.052943-62.068821 8.051621-18.651222 14.064856-31.696886 18.039706-39.035072 8.663136-14.064856 19.160818-22.829911 31.594967-26.499004 12.332229-3.669093 23.237588-7.134347 32.51224-10.497682 9.376571-3.363335 19.160818-8.15354 29.556581-14.472533 10.395763-6.318993 16.20516-14.472533 17.530111-24.562539 0.713435-8.051621 0.713435-14.982129 0-20.995365-0.713435-6.013236-3.669093-12.026471-8.968894-18.039706-9.376571-8.663136-15.695564-19.568495-19.058899-32.51224a87.783047 87.783047 0 0 1-1.019193-39.544668c3.974851-22.014557 13.045664-37.404364 27.008601-46.0675C475.003313 9.274651 489.068169 4.994043 503.133026 4.994043z m0 0" p-id="1954"></path></svg>