<?xml version="1.0" standalone="no"?><!DOCTYPE svg PUBLIC "-//W3C//DTD SVG 1.1//EN" "http://www.w3.org/Graphics/SVG/1.1/DTD/svg11.dtd"><svg t="1729146257070" class="icon" viewBox="0 0 1024 1024" version="1.1" xmlns="http://www.w3.org/2000/svg" p-id="3016" xmlns:xlink="http://www.w3.org/1999/xlink" width="200" height="200"><path d="M800.3584 173.64005925l-226.94874075 226.94874075 10.31585186 10.31585185c2.3058963 7.28177778 6.91768889 14.80628148 13.59265186 21.48124445 6.67496297 6.67496297 14.19946667 11.28675555 21.48124444 13.59265185l8.98085926 8.98085926 227.0701037-227.07010371c9.8304-9.95176297 6.67496297-28.88438518-8.61677037-44.29748148-15.4130963-15.29173333-35.92343703-19.78216297-45.8752-9.95176297z" fill="#F7BB83" p-id="3017"></path><path d="M627.78026667 468.18797037c-3.51952592 0-6.91768889-1.45635555-9.34494815-3.88361482l-6.79632593-6.79632592c-8.49540741-3.2768-16.50536297-8.61677037-23.66577777-15.65582222-7.03905185-7.03905185-12.37902222-15.17037037-15.65582223-23.66577778l-8.25268148-8.25268148c-2.42725925-2.42725925-3.88361482-5.82542222-3.88361481-9.34494815 0-3.51952592 1.45635555-6.91768889 3.88361481-9.34494815l226.94874074-226.94874074c5.94678518-5.94678518 14.0781037-9.10222222 23.42305185-9.10222222 13.71401482 0 29.12711111 7.16041482 41.14204445 19.17534814 20.38897778 20.38897778 24.15122963 47.45291852 8.73813333 62.98737779l-227.19146666 226.94874073c-2.42725925 2.54862222-5.82542222 3.88361482-9.34494815 3.88361482z m-35.55934815-67.59917037l0.9709037 0.9709037c1.45635555 1.45635555 2.66998518 3.39816297 3.2768 5.33997038 1.69908148 5.5826963 5.46133333 11.28675555 10.31585186 16.14127407s10.55857778 8.49540741 16.14127407 10.31585185c1.82044445 0.60681482 3.51952592 1.57771852 4.97588148 2.91271111l217.72515555-217.72515556c4.00497778-4.00497778 1.45635555-15.4130963-8.61677036-25.48622222-8.37404445-8.37404445-17.23354075-11.40811852-22.33078519-11.40811851-1.57771852 0-3.51952592 0.24272592-4.73315555 1.33499259L592.22091852 400.5888z" fill="#6E4123" p-id="3018"></path><path d="M646.47016297 161.74648889l-43.08385186 43.08385186 38.59342222 38.59342222c10.19448889 25.48622222 28.27757037 52.79288889 53.03561482 77.55093333 24.75804445 24.75804445 52.06471111 42.84112592 77.55093333 53.03561481l42.5984 42.5984 43.08385185-43.08385186c30.58346667-30.58346667 4.85451852-105.94986667-52.55016296-163.23318517-57.28331852-57.40468148-128.64474075-79.12865185-159.2282074-48.54518519z" fill="#F7BB83" p-id="3019"></path><path d="M815.16468148 429.83727408c-3.39816297 0-6.79632592-1.33499259-9.34494815-3.88361483l-40.77795555-40.77795555c-27.54939259-11.40811852-54.97742222-30.34074075-79.49274075-54.85605925-24.51531852-24.51531852-43.44794075-51.94334815-54.85605925-79.49274075l-36.65161481-36.77297778c-5.21860741-5.21860741-5.21860741-13.59265185 0-18.68989629l43.08385185-43.08385185c11.65084445-11.65084445 28.03484445-17.71899259 47.57428148-17.7189926 39.56432592 0 89.56586667 25.36485925 130.46518518 66.26417779 64.68645925 64.68645925 88.23087408 146.36373333 52.55016297 182.04444444l-43.08385186 43.08385184c-2.66998518 2.66998518-6.06814815 3.88361482-9.46631111 3.88361483z m-192.96711111-225.00693333l29.24847408 29.24847407c1.21362963 1.21362963 2.3058963 2.79134815 2.9127111 4.49042963 9.8304 24.75804445 27.54939259 50.72971852 50.00154075 73.0605037 22.45214815 22.45214815 48.42382222 40.17114075 73.18186667 50.00154074 1.69908148 0.60681482 3.15543703 1.69908148 4.49042962 2.91271111l33.25345186 33.25345185 33.7389037-33.7389037c21.72397037-21.72397037 3.88361482-88.10951111-52.55016297-144.5432889-35.55934815-35.55934815-79.37137778-58.49694815-111.77528888-58.49694814-12.50038518 0-22.20942222 3.39816297-28.76302222 9.95176297l-33.73890371 33.86026667z" fill="#6E4123" p-id="3020"></path><path d="M764.92041482 255.19597037c58.49694815 58.49694815 81.07045925 130.70791111 50.48699259 161.29137778-30.58346667 30.58346667-102.79442963 8.00995555-161.29137778-50.4869926S573.04557037 235.29244445 603.62903703 204.70897778c30.58346667-30.58346667 102.79442963-8.00995555 161.29137779 50.48699259z" fill="#F7BB83" p-id="3021"></path><path d="M777.78488889 443.42992592c-40.04977778 0-91.02222222-26.09303703-133.01380741-68.08462222-29.73392592-29.73392592-51.82198518-64.07964445-61.89511111-96.48355555-11.04402963-35.43798518-7.03905185-65.05054815 11.40811852-83.49771852 11.40811852-11.40811852 27.67075555-17.47626667 46.96746666-17.47626666 40.04977778 0 91.02222222 26.09303703 133.01380742 68.08462221 29.73392592 29.73392592 51.82198518 64.07964445 61.89511111 96.48355557 11.04402963 35.43798518 7.03905185 65.05054815-11.40811853 83.4977185-11.52948148 11.40811852-27.67075555 17.47626667-46.96746666 17.47626667z m-136.53333334-239.08503703c-12.25765925 0-21.84533333 3.2768-28.27757037 9.70903703-10.92266667 10.92266667-12.74311111 31.67573333-4.85451851 56.91922963 8.8594963 28.5202963 28.64165925 58.86103703 55.34151111 85.68225186 36.65161482 36.65161482 81.43454815 60.31739259 114.32391111 60.31739259 12.25765925 0 21.84533333-3.2768 28.27757036-9.70903703 10.92266667-10.92266667 12.74311111-31.67573333 4.85451853-56.91922964-8.8594963-28.39893333-28.64165925-58.86103703-55.34151111-85.68225185-36.65161482-36.65161482-81.55591111-60.31739259-114.32391112-60.31739259z" fill="#6E4123" p-id="3022"></path><path d="M543.67573333 188.5677037l-58.49694815 58.49694815 52.4288 52.4288c13.83537778 34.70980741 38.3506963 71.84687408 71.96823704 105.46441482 33.61754075 33.61754075 70.75460741 58.25422222 105.46441481 71.96823703l57.89013334 57.89013333 58.49694815-58.49694814c41.6274963-41.6274963 6.67496297-143.93647408-71.36142222-221.8514963-77.91502222-77.91502222-174.88402963-107.40622222-216.39016297-65.90008889z" fill="#F7BB83" p-id="3023"></path><path d="M772.93037037 548.28752592c-3.51952592 0-6.91768889-1.45635555-9.34494815-3.88361481l-55.94832592-55.94832593c-37.13706667-15.29173333-74.15277037-40.77795555-107.40622222-73.91004443-33.13208889-33.13208889-58.61831111-70.26915555-73.91004445-107.40622223l-50.60835555-50.60835555c-5.21860741-5.21860741-5.21860741-13.59265185 0-18.6898963l58.49694814-58.49694815c14.80628148-14.80628148 36.0448-22.69487408 61.2882963-22.69487407 52.67152592 0 119.29979259 33.98162963 173.91312593 88.59496296C855.45718518 331.16918518 887.49700741 439.18222222 840.77226667 485.7856l-58.49694815 58.49694815c-2.42725925 2.54862222-5.82542222 4.00497778-9.34494815 4.00497777zM503.86868148 247.18601482l43.08385185 43.08385185c1.21362963 1.21362963 2.3058963 2.79134815 2.91271112 4.49042963 13.59265185 34.10299259 38.10797037 70.02642963 69.05552592 100.97398518s66.74962963 55.46287408 100.97398518 69.05552593c1.69908148 0.60681482 3.15543703 1.69908148 4.49042963 2.91271111l48.54518519 48.54518518 49.152-49.152c35.0738963-35.0738963 1.69908148-130.1010963-71.36142222-203.1616-49.88017778-49.88017778-109.34802963-80.9490963-155.22322963-80.94909629-18.32580741 0-32.52527408 4.97588148-42.47703704 14.92764444l-49.152 49.27336297z" fill="#6E4123" p-id="3024"></path><path d="M705.3312 314.66382222c79.49274075 79.49274075 110.19757037 177.55401482 68.69143703 219.18151111-41.6274963 41.6274963-139.68877037 10.8013037-219.18151111-68.69143703s-110.19757037-177.55401482-68.69143703-219.18151112c41.6274963-41.50613333 139.68877037-10.8013037 219.18151111 68.69143704z" fill="#F7BB83" p-id="3025"></path><path d="M722.92882963 565.64242963c-53.27834075 0-121.2416-34.83117037-177.43265185-91.02222222-85.92497778-85.92497778-116.14435555-190.41848889-68.69143703-237.87140741 14.68491852-14.68491852 35.55934815-22.45214815 60.5601185-22.45214815 53.27834075 0 121.2416 34.83117037 177.43265186 91.02222223 39.92841482 39.92841482 69.41961482 85.80361482 83.01226667 129.25155555 14.56355555 46.36065185 9.46631111 84.95407408-14.32082963 108.74121482-14.80628148 14.56355555-35.68071111 22.33078518-60.56011852 22.33078518zM537.36485925 240.75377778c-17.96171852 0-32.03982222 4.97588148-41.74885925 14.68491852C459.81392592 291.11940741 491.24693333 382.99117037 564.18607408 455.93031111c50.60835555 50.60835555 112.86755555 83.25499259 158.62139259 83.25499259 17.96171852 0 32.03982222-4.97588148 41.74885925-14.68491852 16.50536297-16.50536297 19.17534815-45.63247408 7.76722963-82.04136296-12.37902222-39.44296297-39.44296297-81.43454815-76.45866666-118.45025185-50.48699259-50.48699259-112.74619259-83.25499259-158.50002964-83.25499259z" fill="#6E4123" p-id="3026"></path><path d="M601.68722963 372.31122963l-226.94874074 226.94874074 10.31585186 10.31585185c2.3058963 7.28177778 6.91768889 14.80628148 13.59265184 21.48124445 6.67496297 6.67496297 14.19946667 11.28675555 21.48124444 13.59265185l8.98085927 8.98085926 227.0701037-227.0701037c9.95176297-9.8304 6.67496297-28.88438518-8.61677037-44.29748149-15.4130963-15.29173333-35.92343703-19.78216297-45.8752-9.95176296z" fill="#F7BB83" p-id="3027"></path><path d="M429.1090963 666.85914075c-3.51952592 0-6.91768889-1.45635555-9.34494815-3.88361483l-6.79632593-6.79632592c-8.49540741-3.2768-16.62672592-8.61677037-23.66577777-15.65582222-7.03905185-7.03905185-12.37902222-15.17037037-15.65582223-23.66577778l-8.25268147-8.25268148c-2.42725925-2.42725925-3.88361482-5.82542222-3.88361483-9.34494815 0-3.51952592 1.45635555-6.91768889 3.88361483-9.34494815l226.94874073-226.94874074c5.94678518-5.94678518 14.0781037-9.10222222 23.42305185-9.10222223 13.71401482 0 29.12711111 7.16041482 41.14204445 19.17534816 9.22358518 9.22358518 15.4130963 20.26761482 17.47626667 31.06891851 2.3058963 12.37902222-0.84954075 23.9085037-8.8594963 31.91845926l-227.0701037 226.94874074c-2.42725925 2.54862222-5.82542222 3.88361482-9.34494815 3.88361483z m-35.55934815-67.59917038l0.9709037 0.97090371c1.45635555 1.45635555 2.66998518 3.2768 3.2768 5.33997037 1.69908148 5.5826963 5.46133333 11.28675555 10.31585185 16.14127407s10.55857778 8.49540741 16.14127408 10.31585185c1.82044445 0.60681482 3.51952592 1.57771852 4.97588147 2.91271111l217.72515557-217.72515556c2.18453333-2.18453333 1.94180741-6.18951111 1.45635555-8.25268147-1.09226667-5.5826963-4.61179259-11.77220741-10.19448889-17.23354075-8.37404445-8.37404445-17.23354075-11.40811852-22.33078518-11.40811852-1.45635555 0-3.51952592 0.24272592-4.73315555 1.3349926L393.54974815 599.25997037z" fill="#6E4123" p-id="3028"></path><path d="M239.41878518 492.82465185l-58.49694815 58.49694815 52.4288 52.4288c13.83537778 34.70980741 38.3506963 71.84687408 71.96823705 105.46441482 33.61754075 33.61754075 70.75460741 58.13285925 105.46441481 71.96823703l57.89013333 57.89013333 58.49694815-58.49694815c41.6274963-41.6274963 6.67496297-143.93647408-71.36142222-221.85149628-77.79365925-78.03638518-174.76266667-107.52758518-216.39016297-65.9000889z" fill="#F7BB83" p-id="3029"></path><path d="M468.79478518 852.42311111c-3.51952592 0-6.91768889-1.45635555-9.34494815-3.88361481l-55.94832592-55.94832593c-37.13706667-15.29173333-74.15277037-40.77795555-107.40622222-73.91004445-33.13208889-33.13208889-58.61831111-70.26915555-73.91004444-107.40622222l-50.60835556-50.60835555c-5.21860741-5.21860741-5.21860741-13.59265185 0-18.6898963l58.49694814-58.49694815c14.80628148-14.92764445 36.0448-22.69487408 61.2882963-22.69487407 52.67152592 0 119.29979259 33.98162963 173.91312592 88.59496296 86.04634075 86.04634075 118.08616297 193.93801482 71.36142223 240.66275556l-58.49694815 58.49694815c-2.54862222 2.42725925-5.82542222 3.88361482-9.34494815 3.88361481zM199.61173333 551.3216l43.08385185 43.08385185c1.33499259 1.21362963 2.3058963 2.79134815 2.91271112 4.49042963 13.59265185 34.22435555 38.10797037 70.02642963 69.05552592 100.97398519s66.74962963 55.46287408 100.97398519 69.05552592c1.69908148 0.60681482 3.15543703 1.69908148 4.49042962 2.91271111l48.54518519 48.54518519 49.152-49.152c35.0738963-35.0738963 1.82044445-130.1010963-71.36142222-203.1616-49.88017778-49.88017778-109.34802963-80.9490963-155.22322963-80.9490963-18.32580741 0-32.52527408 5.09724445-42.47703704 14.92764444l-49.152 49.27336297z" fill="#6E4123" p-id="3030"></path><path d="M253.69718147 766.3395702a203.52568889 106.43531852 44.999 1 0 150.51964416-150.52489797 203.52568889 106.43531852 44.999 1 0-150.51964416 150.52489797Z" fill="#F7BB83" p-id="3031"></path><path d="M421.82731852 866.74394075c-53.27834075 0-121.2416-34.95253333-177.43265185-91.02222223-39.92841482-39.92841482-69.41961482-85.80361482-83.01226667-129.25155555-14.56355555-46.36065185-9.46631111-84.95407408 14.32082963-108.74121482 14.68491852-14.68491852 35.55934815-22.45214815 60.56011852-22.45214815 53.27834075 0 121.2416 34.83117037 177.43265185 91.02222222 39.92841482 39.92841482 69.41961482 85.80361482 83.01226667 129.25155556 14.56355555 46.36065185 9.46631111 84.95407408-14.32082964 108.74121481-14.68491852 14.68491852-35.68071111 22.45214815-60.56011851 22.45214816zM236.26334815 541.85528889c-17.96171852 0-32.03982222 4.97588148-41.74885926 14.68491852-16.50536297 16.50536297-19.17534815 45.63247408-7.76722964 82.04136296 12.37902222 39.44296297 39.44296297 81.43454815 76.45866667 118.45025185 50.60835555 50.60835555 112.86755555 83.25499259 158.6213926 83.2549926 17.96171852 0 32.03982222-4.97588148 41.74885926-14.68491852 16.50536297-16.50536297 19.17534815-45.63247408 7.76722963-82.04136297-12.37902222-39.44296297-39.44296297-81.43454815-76.45866666-118.45025185-50.60835555-50.60835555-112.86755555-83.25499259-158.6213926-83.25499259z" fill="#6E4123" p-id="3032"></path><path d="M206.52942222 601.80859259l-43.08385185 43.08385186 38.59342222 38.59342222c10.19448889 25.48622222 28.27757037 52.91425185 53.03561482 77.55093333 24.75804445 24.75804445 52.06471111 42.84112592 77.55093334 53.03561482l42.5984 42.5984 43.08385184-43.08385185c30.58346667-30.58346667 4.85451852-105.94986667-52.55016296-163.23318519-57.40468148-57.40468148-128.64474075-79.12865185-159.22820741-48.54518519z" fill="#F7BB83" p-id="3033"></path><path d="M375.22394075 869.89937778c-3.39816297 0-6.79632592-1.33499259-9.34494816-3.88361481L325.10103703 825.35917037c-27.54939259-11.40811852-54.97742222-30.34074075-79.49274073-54.85605926-24.51531852-24.51531852-43.44794075-51.94334815-54.85605927-79.49274074L153.97925925 654.23739259c-2.42725925-2.42725925-3.88361482-5.82542222-3.8836148-9.34494814 0-3.51952592 1.45635555-6.91768889 3.8836148-9.34494815l43.08385186-43.08385185c11.65084445-11.65084445 28.03484445-17.71899259 47.57428148-17.7189926 39.56432592 0 89.56586667 25.36485925 130.46518519 66.26417778 64.68645925 64.68645925 88.23087408 146.24237037 52.55016297 182.04444445L384.56888889 866.01576297c-2.54862222 2.54862222-5.94678518 3.88361482-9.34494814 3.88361481zM182.13546667 644.89244445l29.24847408 29.24847407c1.33499259 1.21362963 2.3058963 2.79134815 2.9127111 4.49042963 9.8304 24.75804445 27.54939259 50.72971852 50.00154074 73.0605037 22.45214815 22.45214815 48.42382222 40.17114075 73.18186666 50.00154074 1.69908148 0.60681482 3.15543703 1.69908148 4.49042964 2.91271111l33.25345186 33.25345185 33.7389037-33.7389037c21.72397037-21.72397037 3.88361482-88.10951111-52.55016297-144.54328888-35.55934815-35.55934815-79.37137778-58.49694815-111.77528889-58.49694815-12.50038518 0-22.20942222 3.39816297-28.76302222 9.95176296l-33.7389037 33.86026667z" fill="#6E4123" p-id="3034"></path><path d="M214.13178755 805.91315612a149.7618963 78.27911111 44.999 1 0 110.70144876-110.70531175 149.7618963 78.27911111 44.999 1 0-110.70144876 110.70531175Z" fill="#F7BB83" p-id="3035"></path><path d="M337.72278518 883.37066667c-40.04977778 0-91.02222222-26.09303703-133.0138074-68.08462222-29.73392592-29.73392592-51.82198518-64.07964445-61.89511111-96.48355556-11.04402963-35.43798518-7.03905185-65.05054815 11.40811851-83.49771852 11.40811852-11.40811852 27.67075555-17.47626667 46.96746667-17.47626667 40.04977778 0 91.02222222 26.09303703 133.0138074 68.08462222 29.73392592 29.73392592 51.82198518 64.07964445 61.89511112 96.48355556 11.04402963 35.43798518 7.03905185 65.05054815-11.40811852 83.49771852-11.40811852 11.40811852-27.67075555 17.47626667-46.96746667 17.47626667zM201.18945185 644.28562963c-12.25765925 0-21.84533333 3.2768-28.27757037 9.70903704-10.92266667 10.92266667-12.74311111 31.67573333-4.85451851 56.91922963 8.8594963 28.39893333 28.64165925 58.86103703 55.34151111 85.68225185 36.65161482 36.65161482 81.43454815 60.31739259 114.3239111 60.3173926 12.25765925 0 21.84533333-3.2768 28.27757037-9.70903705 10.92266667-10.92266667 12.74311111-31.67573333 4.85451853-56.91922962-8.8594963-28.39893333-28.64165925-58.86103703-55.34151111-85.68225186-36.65161482-36.65161482-81.55591111-60.31739259-114.32391112-60.31739259z" fill="#6E4123" p-id="3036"></path><path d="M234.4429037 739.67691852l-45.02565925 45.14702223 8.00995555 12.62174814c2.3058963 7.28177778 6.91768889 14.80628148 13.59265185 21.48124444 6.67496297 6.67496297 14.19946667 11.28675555 21.48124445 13.59265185l8.98085925 8.98085927 47.45291853-47.45291853c9.8304-9.8304 6.67496297-28.88438518-8.61677038-44.29748147-15.53445925-15.53445925-36.0448-20.02488889-45.8752-10.07312593z" fill="#F7BB83" p-id="3037"></path><path d="M241.36059259 854.60764445c-3.39816297 0-6.79632592-1.33499259-9.34494814-3.88361482l-6.79632593-6.79632593c-8.49540741-3.2768-16.62672592-8.61677037-23.66577777-15.65582222-7.5245037-7.5245037-13.1072-16.14127408-16.26263705-25.12213333l-7.16041481-11.28675556c-3.2768-5.21860741-2.54862222-12.01493333 1.82044444-16.384l45.02565926-45.14702222c5.94678518-5.94678518 14.0781037-9.10222222 23.42305186-9.10222222 13.71401482 0 29.12711111 7.16041482 41.14204444 19.17534815 20.38897778 20.38897778 24.15122963 47.45291852 8.73813333 62.98737778l-47.45291852 47.45291851c-2.66998518 2.42725925-6.06814815 3.76225185-9.46631111 3.76225186z m-35.07389629-67.96325927l2.30589629 3.6408889c0.60681482 0.9709037 1.09226667 2.06317037 1.45635556 3.15543703 1.69908148 5.46133333 5.33997037 11.28675555 10.31585185 16.14127407 4.85451852 4.85451852 10.55857778 8.49540741 16.14127408 10.31585185 1.82044445 0.60681482 3.51952592 1.57771852 4.97588147 2.91271112l38.10797037-38.10797037c4.00497778-4.00497778 1.45635555-15.4130963-8.61677037-25.48622223-8.37404445-8.37404445-17.23354075-11.40811852-22.33078518-11.40811852-1.57771852 0-3.51952592 0.24272592-4.73315555 1.3349926l-37.62251852 37.50115555z" fill="#6E4123" p-id="3038"></path><path d="M208.91590717 829.00924522a38.47205925 23.66577778 44.999 1 0 33.46787957-33.4690483 38.47205925 23.66577778 44.999 1 0-33.46787957 33.4690483Z" fill="#F7BB83" p-id="3039"></path><path d="M240.14696297 857.52035555c-13.47128889 0-28.5202963-7.16041482-40.53522964-19.05398518-8.98085925-8.98085925-15.29173333-19.78216297-17.84035555-30.4621037-3.03407408-12.74311111-0.36408889-24.51531852 7.40314074-32.16118519 5.5826963-5.5826963 13.34992592-8.61677037 22.08805926-8.61677037 13.47128889 0 28.5202963 7.16041482 40.53522963 19.05398519 8.98085925 8.98085925 15.29173333 19.78216297 17.84035556 30.4621037 3.03407408 12.74311111 0.36408889 24.51531852-7.40314075 32.28254815-5.5826963 5.46133333-13.22856297 8.49540741-22.08805925 8.4954074z m-28.88438519-63.83691852c-1.57771852 0-2.91271111 0.36408889-3.39816296 0.84954075-0.84954075 0.84954075-1.33499259 3.51952592-0.3640889 7.40314074 1.33499259 5.82542222 5.33997037 12.37902222 10.80130371 17.84035556 11.16539259 11.16539259 23.05896297 12.62174815 25.12213334 10.43721481 0.84954075-0.84954075 1.33499259-3.51952592 0.36408888-7.40314074-1.33499259-5.82542222-5.33997037-12.37902222-10.8013037-17.84035556-8.25268148-8.37404445-16.86945185-11.28675555-21.72397037-11.28675556z" fill="#6E4123" p-id="3040"></path><path d="M684.6994963 147.91111111c28.64165925 0 64.92918518 15.17037037 99.03217778 42.47703704l16.74808889-16.7480889c3.51952592-3.51952592 8.49540741-5.21860741 14.0781037-5.2186074 9.95176297 0 21.84533333 5.33997037 31.67573333 15.29173333 15.4130963 15.4130963 18.56853333 34.34571852 8.61677037 44.29748149l-18.56853334 18.56853333c34.95253333 49.63745185 46.48201482 102.5517037 22.08805927 127.06702222l-14.92764445 14.92764445c10.07312592 36.65161482 7.28177778 68.8128-11.89357037 87.98814815L774.02263703 533.84533333l-1.09226666 1.09226667c-12.50038518 11.77220741-29.85528889 17.47626667-50.00154074 17.47626667-38.71478518 0-88.10951111-20.6317037-134.83425185-57.64740742l-100.12444445 100.12444445c54.7346963 70.87597037 74.88094815 150.24734815 39.44296297 185.68533333l-54.37060741 54.37060742-4.12634074 4.12634073-0.24272593-0.24272593c-12.1362963 9.8304-28.27757037 14.56355555-46.72474074 14.56355557-11.77220741 0-24.51531852-1.94180741-37.86524445-5.5826963l-8.61677036 8.61677037-0.12136297 0.12136296c-9.22358518 9.10222222-22.20942222 13.47128889-37.37979259 13.4712889-24.39395555 0-54.61333333-11.16539259-84.34725926-31.43300742-0.24272592 0.24272592-0.36408889 0.60681482-0.60681482 0.84954075-3.15543703 3.15543703-7.64586667 4.73315555-12.74311111 4.73315555-9.58767408 0-21.35988148-5.33997037-31.19028147-15.17037038-11.16539259-11.16539259-16.62672592-24.87940741-14.80628148-34.95253333l-0.36408889-7.88859259-1.3349926-4.49042963c-41.87022222-52.79288889-55.22014815-110.19757037-29.00574815-136.77605925l8.73813334-8.73813334c-9.46631111-34.34571852-7.16041482-64.68645925 8.98085925-84.58998519l-0.24272592-0.24272592 58.49694815-58.49694815c12.74311111-12.74311111 30.82619259-18.81125925 51.82198518-18.81125926 41.38477037 0 94.78447408 23.42305185 143.57238519 65.29327408l97.93991111-97.93991112c-62.13783703-73.54595555-83.61908148-156.07277037-47.69564445-194.05937777l0.97090371-0.9709037 0.12136296-0.12136297 0.12136297-0.12136296 57.28331851-57.28331852c12.74311111-12.74311111 30.82619259-18.81125925 51.82198519-18.81125926 11.65084445 0 24.27259259 1.82044445 37.50115556 5.46133333l13.47128889-13.47128888c9.46631111-9.58767408 22.69487408-14.0781037 38.22933333-14.07810371m0-26.45712593c-23.05896297 0-42.71976297 7.5245037-56.91922963 21.60260741l-3.15543704 3.15543704c-10.07312592-1.94180741-19.90352592-2.91271111-29.12711111-2.91271111-28.76302222 0-53.15697778 9.22358518-70.51188149 26.57848889l-57.04059258 57.04059259-0.24272593 0.24272592-0.60681482 0.60681483-0.60681481 0.6068148c-0.72817778 0.72817778-1.33499259 1.45635555-1.94180741 2.18453334-40.77795555 45.26838518-26.94257778 128.52337778 32.88936297 208.74429629l-64.44373334 64.44373334c-47.69564445-35.92343703-98.42536297-56.19105185-141.63057778-56.19105185-28.76302222 0-53.15697778 9.22358518-70.63324444 26.57848888L162.23194075 532.6317037c-1.94180741 1.94180741-3.39816297 4.00497778-4.6117926 6.31087408-16.14127408 22.69487408-21.11715555 53.64242963-14.4421926 88.95905185-33.49617778 36.0448-23.66577778 101.33807408 24.51531853 164.93226667v0.12136295c-1.82044445 18.32580741 6.43223703 38.59342222 22.69487407 54.7346963 14.56355555 14.56355555 32.768 22.9376 49.88017777 22.9376 4.12634075 0 8.13131852-0.48545185 12.01493333-1.45635555 29.73392592 17.71899259 59.71057778 27.30666667 85.68225186 27.30666667 21.84533333 0 40.53522963-6.79632592 54.37060741-19.53943704 10.19448889 1.94180741 20.14625185 2.91271111 29.61256296 2.91271112 23.05896297 0 43.5693037-6.06814815 59.58921482-17.59762964 2.18453333-1.21362963 4.2477037-2.66998518 6.06814815-4.49042963l4.12634073-4.12634073 0.12136297-0.12136297 54.24924444-54.24924445c41.02068148-41.02068148 30.82619259-121.84841482-23.42305184-201.58388148l68.08462222-68.08462222c45.26838518 31.43300741 92.59994075 49.152 132.28562962 49.152 26.57848889 0 49.51608889-8.00995555 66.50690371-23.05896296 0.84954075-0.60681482 1.57771852-1.33499259 2.30589629-2.06317037l1.09226666-1.09226667 0.3640889-0.36408888 57.16195555-57.16195557c22.57351111-22.57351111 30.34074075-57.16195555 22.33078519-98.42536296l4.49042963-4.49042963c30.34074075-30.34074075 27.1853037-84.71134815-6.91768889-142.11602962l3.51952592-3.51952594c20.87442963-20.87442963 17.11217778-55.94832592-8.61677037-81.67727406-14.56355555-14.56355555-33.01072592-22.9376-50.48699259-22.9376-12.74311111 0-24.39395555 4.61179259-32.768 12.98583703l-0.72817777 0.72817778c-33.13208889-21.84533333-67.23508148-34.10299259-96.60491852-34.1029926z" fill="#6E4123" p-id="3041"></path></svg>