<?xml version="1.0" standalone="no"?><!DOCTYPE svg PUBLIC "-//W3C//DTD SVG 1.1//EN" "http://www.w3.org/Graphics/SVG/1.1/DTD/svg11.dtd"><svg t="1729146351201" class="icon" viewBox="0 0 1024 1024" version="1.1" xmlns="http://www.w3.org/2000/svg" p-id="5226" xmlns:xlink="http://www.w3.org/1999/xlink" width="200" height="200"><path d="M293.7 476.8v70.3c0 1.1 0.9 2 2 2h431.9c1.1 0 2-0.9 2-2v-70.3c0-1.1-0.9-2-2-2H295.7c-1.2 0-2 0.9-2 2z" fill="#ABA3CC" p-id="5227"></path><path d="M166.4 661.1h-83c-1.1 0-2-0.9-2-2V364.9c0-1.1 0.9-2 2-2h83c1.1 0 2 0.9 2 2v294.3c0 1-0.9 1.9-2 1.9z" fill="#FFFFFF" p-id="5228"></path><path d="M156.9 678.3h-64c-15.8 0-28.7-12.9-28.7-28.7V374.3c0-15.8 12.9-28.7 28.7-28.7H157c15.8 0 28.7 12.9 28.7 28.7v275.3c-0.1 15.9-12.9 28.7-28.8 28.7z m-58.3-34.4h52.6V380.1H98.6v263.8z" fill="#6229CE" p-id="5229"></path><path d="M293.6 730H170.4c-1.1 0-2-0.9-2-2V296c0-1.1 0.9-2 2-2h123.1c1.1 0 2 0.9 2 2v432c0.1 1.1-0.8 2-1.9 2z" fill="#FFFFFF" p-id="5230"></path><path d="M284.1 747.2H179.9c-15.8 0-28.7-12.9-28.7-28.7v-413c0-15.8 12.9-28.7 28.7-28.7h104.2c15.8 0 28.7 12.9 28.7 28.7v413c0 15.8-12.9 28.7-28.7 28.7z m-98.5-34.4h92.7V311.2h-92.7v401.6z" fill="#6229CE" p-id="5231"></path><path d="M856.8 661.1h83c1.1 0 2-0.9 2-2V364.9c0-1.1-0.9-2-2-2h-83c-1.1 0-2 0.9-2 2v294.3c0 1 0.9 1.9 2 1.9z" fill="#FFFFFF" p-id="5232"></path><path d="M930.4 678.3h-64.1c-15.8 0-28.7-12.9-28.7-28.7V374.3c0-15.8 12.9-28.7 28.7-28.7h64.1c15.8 0 28.7 12.9 28.7 28.7v275.3c-0.1 15.9-12.9 28.7-28.7 28.7zM872 643.9h52.6V380.1H872v263.8z" fill="#6229CE" p-id="5233"></path><path d="M729.7 730h123.1c1.1 0 2-0.9 2-2V296c0-1.1-0.9-2-2-2H729.7c-1.1 0-2 0.9-2 2v432c0 1.1 0.9 2 2 2z" fill="#FFFFFF" p-id="5234"></path><path d="M843.4 747.2H739.2c-15.8 0-28.7-12.9-28.7-28.7v-413c0-15.8 12.9-28.7 28.7-28.7h104.2c15.8 0 28.7 12.9 28.7 28.7v413c-0.1 15.8-12.9 28.7-28.7 28.7z m-98.5-34.4h92.7V311.2h-92.7v401.6z" fill="#6229CE" p-id="5235"></path></svg>